<svg width="149" height="48" viewBox="0 0 149 48" fill="none" xmlns="http://www.w3.org/2000/svg">
<g clip-path="url(#clip0_403_3713)">
<mask id="mask0_403_3713" style="mask-type:luminance" maskUnits="userSpaceOnUse" x="0" y="0" width="49" height="48">
<path d="M0.75 0H48.25V47.5H0.75V0Z" fill="white"/>
</mask>
<g mask="url(#mask0_403_3713)">
<path d="M44.7413 17.9125C45.2372 17.4398 45.6662 16.9015 46.0163 16.3125C48.1225 12.7462 46.3525 3.4475 45.2762 2.8125C44.4062 2.29875 38.3638 4.125 34.9688 6.7275C31.845 4.85625 28.2887 3.75125 24.5 3.75125C20.7225 3.75125 17.18 4.85 14.0638 6.71C10.6625 4.11625 4.6475 2.3 3.78 2.8125C2.70375 3.4475 0.935 12.7462 3.04 16.3125C3.3875 16.9012 3.80875 17.4175 4.27625 17.8737C2.83125 21.0637 2 24.5513 2 28.0988C2 40.5862 12.0125 43.7512 24.5 43.7512C36.9863 43.7512 47 40.5862 47 28.0988C47 24.565 46.1738 21.0912 44.7413 17.9125Z" fill="#F4ABBA"/>
<path d="M11.2475 8.70625C8.53999 7.12125 5.74499 6.10625 5.24749 6.4C4.53499 6.82 3.89374 12.6475 4.80874 16.73C6.38657 13.6451 8.57755 10.9148 11.2475 8.70625ZM44.1912 16.73C45.1062 12.6463 44.465 6.82 43.7525 6.39875C43.255 6.105 40.46 7.12125 37.7525 8.70625C40.4237 10.9135 42.6149 13.6441 44.1912 16.73ZM37 30.1562C37 35.765 33.1287 41.875 24.5 41.875C15.87 41.875 12 35.765 12 30.1562C12 24.5475 15.87 23.125 24.5 23.125C33.1287 23.125 37 24.5475 37 30.1562Z" fill="#EA596E"/>
<path d="M20.75 32C20.75 34.3213 20.325 35 18.875 35C17.425 35 17 34.3213 17 32C17 29.68 17.425 29.0013 18.875 29.0013C20.325 29.0013 20.75 29.68 20.75 32ZM32 32C32 34.3213 31.575 35 30.125 35C28.675 35 28.25 34.3213 28.25 32C28.25 29.68 28.675 29.0013 30.125 29.0013C31.575 29.0013 32 29.68 32 32Z" fill="#662113"/>
<path d="M13.25 22.5C13.2499 23.1632 12.9862 23.7992 12.5172 24.268C12.0481 24.7369 11.412 25.0002 10.7488 25C10.0856 24.9998 9.44959 24.7362 8.98075 24.2671C8.51191 23.7981 8.24861 23.162 8.24878 22.4988C8.24886 22.1704 8.31362 21.8452 8.43937 21.5419C8.56511 21.2385 8.74938 20.9629 8.98164 20.7307C9.2139 20.4986 9.48961 20.3145 9.79303 20.1889C10.0965 20.0633 10.4216 19.9987 10.75 19.9988C11.0784 19.9988 11.4036 20.0636 11.7069 20.1893C12.0103 20.3151 12.2859 20.4993 12.5181 20.7316C12.7502 20.9639 12.9343 21.2396 13.0599 21.543C13.1855 21.8464 13.2501 22.1716 13.25 22.5ZM40.75 22.5C40.7499 22.8284 40.6852 23.1535 40.5594 23.4569C40.4337 23.7603 40.2494 24.0359 40.0172 24.268C39.7849 24.5002 39.5092 24.6843 39.2058 24.8099C38.9024 24.9355 38.5772 25.0001 38.2488 25C37.9204 24.9999 37.5952 24.9352 37.2919 24.8094C36.9885 24.6837 36.7129 24.4994 36.4808 24.2671C36.2486 24.0349 36.0645 23.7592 35.9389 23.4557C35.8133 23.1523 35.7487 22.8271 35.7488 22.4988C35.7489 21.8355 36.0126 21.1996 36.4816 20.7307C36.9507 20.2619 37.5868 19.9986 38.25 19.9988C38.9132 19.9989 39.5492 20.2625 40.0181 20.7316C40.4869 21.2007 40.7502 21.8368 40.75 22.5Z" fill="#292F33"/>
</g>
</g>
<path d="M69.9746 26.1543H64.9023V22.9551H69.9746C70.7585 22.9551 71.3965 22.8275 71.8887 22.5723C72.3809 22.3079 72.7409 21.9434 72.9688 21.4785C73.1966 21.0137 73.3105 20.4896 73.3105 19.9062C73.3105 19.3138 73.1966 18.7624 72.9688 18.252C72.7409 17.7415 72.3809 17.3314 71.8887 17.0215C71.3965 16.7116 70.7585 16.5566 69.9746 16.5566H66.3242V33.25H62.2227V13.3438H69.9746C71.5332 13.3438 72.8685 13.6263 73.9805 14.1914C75.1016 14.7474 75.9583 15.5176 76.5508 16.502C77.1432 17.4863 77.4395 18.612 77.4395 19.8789C77.4395 21.1641 77.1432 22.276 76.5508 23.2148C75.9583 24.1536 75.1016 24.8783 73.9805 25.3887C72.8685 25.8991 71.5332 26.1543 69.9746 26.1543ZM84.1797 18.457V33.25H80.2285V18.457H84.1797ZM79.9824 14.6016C79.9824 14.0273 80.1829 13.5534 80.584 13.1797C80.985 12.806 81.5228 12.6191 82.1973 12.6191C82.8626 12.6191 83.3958 12.806 83.7969 13.1797C84.207 13.5534 84.4121 14.0273 84.4121 14.6016C84.4121 15.1758 84.207 15.6497 83.7969 16.0234C83.3958 16.3971 82.8626 16.584 82.1973 16.584C81.5228 16.584 80.985 16.3971 80.584 16.0234C80.1829 15.6497 79.9824 15.1758 79.9824 14.6016ZM96.7988 18.457H100.367V32.7578C100.367 34.1068 100.066 35.2507 99.4648 36.1895C98.8724 37.1374 98.043 37.8529 96.9766 38.3359C95.9102 38.8281 94.6706 39.0742 93.2578 39.0742C92.638 39.0742 91.9818 38.9922 91.2891 38.8281C90.6055 38.6641 89.9492 38.4089 89.3203 38.0625C88.7005 37.7161 88.181 37.2786 87.7617 36.75L89.498 34.4258C89.9538 34.9544 90.4824 35.3646 91.084 35.6562C91.6855 35.957 92.3509 36.1074 93.0801 36.1074C93.791 36.1074 94.3926 35.9753 94.8848 35.7109C95.377 35.4557 95.7552 35.0775 96.0195 34.5762C96.2839 34.084 96.416 33.487 96.416 32.7852V21.875L96.7988 18.457ZM86.8457 26.0312V25.7441C86.8457 24.6139 86.9824 23.5885 87.2559 22.668C87.5384 21.7383 87.9349 20.9408 88.4453 20.2754C88.9648 19.61 89.5938 19.0951 90.332 18.7305C91.0703 18.3659 91.9043 18.1836 92.834 18.1836C93.8184 18.1836 94.6432 18.3659 95.3086 18.7305C95.974 19.0951 96.5208 19.6146 96.9492 20.2891C97.3776 20.9544 97.7103 21.7428 97.9473 22.6543C98.1934 23.5566 98.3848 24.5456 98.5215 25.6211V26.25C98.3848 27.2799 98.1797 28.237 97.9062 29.1211C97.6328 30.0052 97.2728 30.7799 96.8262 31.4453C96.3796 32.1016 95.8236 32.612 95.1582 32.9766C94.502 33.3411 93.7181 33.5234 92.8066 33.5234C91.8952 33.5234 91.0703 33.3366 90.332 32.9629C89.6029 32.5892 88.9785 32.0651 88.459 31.3906C87.9395 30.7161 87.5384 29.9232 87.2559 29.0117C86.9824 28.1003 86.8457 27.1068 86.8457 26.0312ZM90.7832 25.7441V26.0312C90.7832 26.6419 90.8424 27.2116 90.9609 27.7402C91.0794 28.2689 91.2617 28.7383 91.5078 29.1484C91.763 29.5495 92.0775 29.8639 92.4512 30.0918C92.834 30.3105 93.2852 30.4199 93.8047 30.4199C94.5247 30.4199 95.1126 30.2695 95.5684 29.9688C96.0241 29.6589 96.3659 29.235 96.5938 28.6973C96.8216 28.1595 96.9538 27.5397 96.9902 26.8379V25.0469C96.972 24.4727 96.8945 23.9577 96.7578 23.502C96.6211 23.0371 96.4297 22.6406 96.1836 22.3125C95.9375 21.9844 95.6185 21.7292 95.2266 21.5469C94.8346 21.3646 94.3698 21.2734 93.832 21.2734C93.3125 21.2734 92.8613 21.3919 92.4785 21.6289C92.1048 21.8568 91.7904 22.1712 91.5352 22.5723C91.2891 22.9733 91.1022 23.4473 90.9746 23.9941C90.847 24.5319 90.7832 25.1152 90.7832 25.7441ZM112.576 13.3438V33.25H108.488V13.3438H112.576ZM118.701 13.3438V16.5566H102.459V13.3438H118.701ZM126.316 33.5234C125.168 33.5234 124.138 33.3411 123.227 32.9766C122.315 32.6029 121.54 32.0879 120.902 31.4316C120.273 30.7754 119.79 30.0143 119.453 29.1484C119.116 28.2734 118.947 27.3438 118.947 26.3594V25.8125C118.947 24.6914 119.107 23.666 119.426 22.7363C119.745 21.8066 120.201 21 120.793 20.3164C121.395 19.6328 122.124 19.1087 122.98 18.7441C123.837 18.3704 124.803 18.1836 125.879 18.1836C126.927 18.1836 127.857 18.3568 128.668 18.7031C129.479 19.0495 130.158 19.5417 130.705 20.1797C131.261 20.8177 131.68 21.5833 131.963 22.4766C132.245 23.3607 132.387 24.3451 132.387 25.4297V27.0703H120.629V24.4453H128.518V24.1445C128.518 23.5977 128.417 23.11 128.217 22.6816C128.025 22.2441 127.734 21.8978 127.342 21.6426C126.95 21.3874 126.449 21.2598 125.838 21.2598C125.318 21.2598 124.872 21.3737 124.498 21.6016C124.124 21.8294 123.819 22.1484 123.582 22.5586C123.354 22.9688 123.181 23.4518 123.062 24.0078C122.953 24.5547 122.898 25.1562 122.898 25.8125V26.3594C122.898 26.9518 122.98 27.4987 123.145 28C123.318 28.5013 123.559 28.9342 123.869 29.2988C124.188 29.6634 124.571 29.946 125.018 30.1465C125.473 30.347 125.988 30.4473 126.562 30.4473C127.273 30.4473 127.934 30.3105 128.545 30.0371C129.165 29.7546 129.698 29.3307 130.145 28.7656L132.059 30.8438C131.749 31.2904 131.325 31.7188 130.787 32.1289C130.258 32.5391 129.62 32.8763 128.873 33.1406C128.126 33.3958 127.273 33.5234 126.316 33.5234ZM138.566 12.2363V33.25H134.629V12.2363H138.566ZM147.891 18.457L141.465 25.7852L138.02 29.2715L136.584 26.4277L139.318 22.9551L143.16 18.457H147.891ZM143.803 33.25L139.428 26.4141L142.148 24.0352L148.342 33.25H143.803Z" fill="white"/>
<defs>
<clipPath id="clip0_403_3713">
<rect width="47.5" height="47.5" fill="white" transform="translate(0.75)"/>
</clipPath>
</defs>
</svg>
